<?xml version="1.0" encoding="UTF-8"?>
<svg xmlns="http://www.w3.org/2000/svg" xmlns:xlink="http://www.w3.org/1999/xlink" width="36pt" height="36pt" viewBox="0 0 48 48" version="1.1">
<g id="surface1">
<path style=" stroke:none;fill-rule:nonzero;fill:#EF5353;fill-opacity:1;" d="M 29.761719 37.058594 C 29.894531 37.011719 29.988281 37.011719 30.003906 37.007813 C 30.003906 37.007813 30.007813 37.007813 30.011719 37.007813 C 30.011719 37.007813 30.011719 37.007813 30.113281 37.007813 L 41.046875 36.023438 C 41.046875 36.023438 39.011719 34.542969 38.261719 33.710938 C 38.257813 33.710938 38.257813 33.707031 38.253906 33.703125 C 38.246094 33.695313 38.242188 33.691406 38.238281 33.6875 L 38.238281 33.679688 C 38.070313 33.5 37.96875 33.261719 37.972656 32.996094 C 37.972656 32.65625 38.15625 32.371094 38.421875 32.191406 L 38.421875 32.167969 L 43 28 L 38.023438 27 C 37.46875 26.992188 37.027344 26.542969 37.03125 25.988281 C 37.03125 25.789063 38.046875 23 38.046875 23 L 33.050781 24 C 32.496094 23.992188 32.054688 23.5 32.058594 22.945313 C 32.0625 22.734375 32.144531 22.546875 32.257813 22.386719 L 32.25 22.367188 L 40 12.019531 C 40 12.019531 37 12 35.988281 12 C 35.046875 12 35 11 35 11 L 35 4 L 29.296875 8.839844 C 29.296875 8.839844 28.597656 9.316406 27.953125 8.628906 C 27.316406 7.9375 24.953125 5 24.953125 5 L 20.921875 17.808594 L 20.902344 17.8125 C 20.84375 18.003906 20.75 18.183594 20.582031 18.3125 C 20.148438 18.660156 19.519531 18.585938 19.175781 18.152344 L 17 13 C 17 13 15.222656 16.683594 15.0625 16.804688 C 14.628906 17.148438 13.90625 16.953125 13.65625 16.644531 L 10 13 L 9.117188 18.925781 L 9.101563 18.941406 C 9.121094 19.257813 9.011719 19.578125 8.742188 19.792969 C 8.535156 19.957031 8.285156 20.019531 8.039063 20 L 8.035156 20.003906 C 8.027344 20.003906 8.023438 20 8.015625 20 C 8.011719 20 5 20 5 20 L 10.800781 28.597656 C 10.804688 28.601563 10.804688 28.605469 10.804688 28.605469 C 10.8125 28.617188 10.867188 28.691406 10.917969 28.824219 C 11.09375 29.230469 11.003906 29.714844 10.640625 30.003906 C 9.855469 30.625 8 32 8 32 L 19 35 L 29 41 C 29 41 28.992188 39 29 38 C 29.003906 37.535156 29.332031 37.164063 29.761719 37.058594 Z "/>
<path style=" stroke:none;fill-rule:nonzero;fill:#B43030;fill-opacity:1;" d="M 8.742188 41.199219 C 11.175781 39.632813 23 34 31 12 C 25 35 13.054688 41.667969 10.414063 43.691406 C 9.757813 44.195313 8.8125 44.070313 8.308594 43.410156 C 7.804688 42.753906 7.929688 41.808594 8.589844 41.304688 C 8.621094 41.28125 8.652344 41.257813 8.6875 41.238281 Z "/>
<path style=" stroke:none;fill-rule:nonzero;fill:#B43030;fill-opacity:1;" d="M 14 21 C 15.019531 22.523438 16.164063 23.847656 17.441406 25.027344 C 18.074219 25.621094 18.742188 26.171875 19.417969 26.710938 C 20.097656 27.222656 20.832031 27.742188 21.507813 28.152344 L 21.441406 28.113281 L 22.949219 28.859375 L 23.324219 29.050781 L 23.472656 29.125 L 23.625 29.1875 C 23.84375 29.277344 24.082031 29.363281 24.324219 29.4375 C 25.296875 29.734375 26.339844 29.945313 27.398438 30.042969 C 28.460938 30.160156 29.546875 30.191406 30.644531 30.171875 C 31.746094 30.164063 32.855469 30.066406 34 30 C 31.972656 31.054688 29.6875 31.636719 27.335938 31.707031 C 26.160156 31.714844 24.96875 31.632813 23.785156 31.316406 C 23.492188 31.238281 23.195313 31.152344 22.894531 31.03125 L 22.660156 30.933594 L 22.433594 30.828125 L 22.054688 30.640625 L 20.558594 29.882813 L 20.488281 29.847656 C 19.644531 29.300781 18.945313 28.722656 18.253906 28.074219 C 17.5625 27.441406 16.929688 26.746094 16.359375 26.003906 C 15.785156 25.265625 15.289063 24.464844 14.878906 23.628906 C 14.472656 22.792969 14.160156 21.898438 14 21 Z "/>
</g>
</svg>