<?xml version="1.0" encoding="UTF-8"?>
<svg xmlns="http://www.w3.org/2000/svg" xmlns:xlink="http://www.w3.org/1999/xlink" width="14pt" height="14pt" viewBox="0 0 26 26" version="1.1">
<g id="surface1">
<path style=" stroke:none;fill-rule:nonzero;fill:#bbb;fill-opacity:1;" d="M 5.5 0 C 4.121094 0 3 1.121094 3 2.5 C 3 3.878906 4.121094 5 5.5 5 C 6.878906 5 8 3.878906 8 2.5 C 8 1.121094 6.878906 0 5.5 0 Z M 7.5625 5.96875 C 7.480469 5.96875 7.386719 5.980469 7.3125 6 C 6.808594 6 6.539063 6.03125 5.03125 6.03125 C 3.492188 6.03125 1.78125 6 1.78125 6 C 0.949219 6.007813 0.503906 6.328125 0.40625 7.46875 C 0.339844 8.222656 0.0546875 14.78125 0.03125 15.6875 C 0.0078125 16.53125 0.351563 16.960938 1 17 C 1.496094 17.03125 1.902344 16.574219 1.9375 15.84375 C 1.882813 18.566406 1.808594 23.117188 1.78125 23.96875 C 1.746094 25.09375 1.90625 26 2.84375 26 C 3.78125 26 4.113281 25.566406 4.21875 24.53125 C 4.308594 23.636719 4.832031 17.84375 5 16.03125 C 5.167969 17.84375 5.691406 23.636719 5.78125 24.53125 C 5.886719 25.566406 6.1875 26 7.125 26 C 8.0625 26 8.253906 25.097656 8.21875 23.96875 C 8.183594 22.921875 8.023438 15.167969 8 14 L 8 8.5625 C 9.121094 9.113281 14.277344 11.496094 15.0625 11.84375 C 15.835938 12.1875 16.375 12.023438 16.65625 11.4375 C 16.871094 10.992188 16.601563 10.4375 15.9375 10.125 C 15.136719 9.746094 8.625 6.34375 8.625 6.34375 C 8.261719 6.148438 7.890625 5.976563 7.5625 5.96875 Z M 12 12 C 11.449219 12 11 12.449219 11 13 L 11 16 C 11 16.550781 11.449219 17 12 17 L 15 12 Z M 18 12 L 15 17 L 19 17 L 22 12 Z M 15 17 L 13 17 L 13 26 L 15 26 L 15 24 L 24 24 L 24 26 L 26 26 L 26 12 L 25 12 L 22 17 L 24 17 L 24 22 L 15 22 Z "/>
</g>
</svg>
