<?xml version="1.0" encoding="UTF-8"?>
<svg xmlns="http://www.w3.org/2000/svg" xmlns:xlink="http://www.w3.org/1999/xlink" width="50pt" height="50pt" viewBox="0 0 50 50" version="1.1">
<g id="surface1">
<path style=" stroke:none;fill-rule:nonzero;fill:#71C24C;fill-opacity:1;" d="M 8.59375 35.15625 L 5.46875 35.15625 C 3.742188 35.15625 2.34375 33.757813 2.34375 32.03125 L 2.34375 21.09375 C 2.34375 19.367188 3.742188 17.96875 5.46875 17.96875 L 8.59375 17.96875 Z "/>
<path style=" stroke:none;fill-rule:nonzero;fill:#60AF3C;fill-opacity:1;" d="M 2.34375 26.5625 L 8.59375 26.5625 L 8.59375 35.15625 L 4.6875 35.15625 C 3.394531 35.15625 2.34375 34.105469 2.34375 32.8125 Z "/>
<path style=" stroke:none;fill-rule:nonzero;fill:#71C24C;fill-opacity:1;" d="M 41.40625 17.96875 L 44.53125 17.96875 C 46.257813 17.96875 47.65625 19.367188 47.65625 21.09375 L 47.65625 32.03125 C 47.65625 33.757813 46.257813 35.15625 44.53125 35.15625 L 41.40625 35.15625 Z "/>
<path style=" stroke:none;fill-rule:nonzero;fill:#60AF3C;fill-opacity:1;" d="M 41.40625 26.5625 L 47.65625 26.5625 L 47.65625 32.8125 C 47.65625 34.105469 46.605469 35.15625 45.3125 35.15625 L 41.40625 35.15625 Z "/>
<path style=" stroke:none;fill-rule:nonzero;fill:#B1D0AC;fill-opacity:1;" d="M 10.15625 16.40625 C 11.019531 16.40625 11.71875 17.105469 11.71875 17.96875 L 11.71875 35.15625 C 11.71875 36.019531 11.019531 36.71875 10.15625 36.71875 C 9.292969 36.71875 8.59375 36.019531 8.59375 35.15625 L 8.59375 17.96875 C 8.59375 17.105469 9.292969 16.40625 10.15625 16.40625 Z "/>
<path style=" stroke:none;fill-rule:nonzero;fill:#B1D0AC;fill-opacity:1;" d="M 39.84375 16.40625 C 40.707031 16.40625 41.40625 17.105469 41.40625 17.96875 L 41.40625 35.15625 C 41.40625 36.019531 40.707031 36.71875 39.84375 36.71875 C 38.980469 36.71875 38.28125 36.019531 38.28125 35.15625 L 38.28125 17.96875 C 38.28125 17.105469 38.980469 16.40625 39.84375 16.40625 Z "/>
<path style=" stroke:none;fill-rule:nonzero;fill:#B1D0AC;fill-opacity:1;" d="M 25.78125 42.96875 L 28.90625 42.96875 C 29.769531 42.96875 30.46875 43.667969 30.46875 44.53125 L 30.46875 46.09375 C 30.46875 46.957031 29.769531 47.65625 28.90625 47.65625 L 25.78125 47.65625 C 24.917969 47.65625 24.21875 46.957031 24.21875 46.09375 L 24.21875 44.53125 C 24.21875 43.667969 24.917969 42.96875 25.78125 42.96875 Z "/>
<path style=" stroke:none;fill-rule:nonzero;fill:#CEE7C2;fill-opacity:1;" d="M 34.5 11.179688 C 33.929688 11.800781 32.96875 11.855469 32.328125 11.304688 C 28.183594 7.476563 21.792969 7.476563 17.648438 11.304688 C 17.011719 11.855469 16.058594 11.800781 15.484375 11.1875 L 11.71875 7.171875 C 14.839844 3.5 19.402344 1.367188 24.21875 1.328125 L 25.859375 1.328125 C 30.644531 1.382813 35.171875 3.496094 38.28125 7.132813 Z "/>
<path style=" stroke:none;fill-rule:nonzero;fill:#ACD0B6;fill-opacity:1;" d="M 24.21875 5.234375 C 20.332031 5.25 16.582031 6.65625 13.640625 9.195313 L 15.523438 11.203125 C 16.097656 11.816406 17.050781 11.871094 17.6875 11.320313 C 21.832031 7.492188 28.222656 7.492188 32.367188 11.320313 C 33.007813 11.871094 33.96875 11.816406 34.539063 11.195313 L 36.414063 9.1875 C 33.472656 6.671875 29.730469 5.289063 25.859375 5.28125 Z "/>
<path style=" stroke:none;fill-rule:nonzero;fill:#8D6C9F;fill-opacity:1;" d="M 25 3.125 C 24.570313 3.125 24.21875 3.476563 24.21875 3.90625 L 24.21875 5.46875 C 24.21875 5.898438 24.570313 6.25 25 6.25 C 25.429688 6.25 25.78125 5.898438 25.78125 5.46875 L 25.78125 3.90625 C 25.78125 3.476563 25.429688 3.125 25 3.125 Z "/>
<path style=" stroke:none;fill-rule:nonzero;fill:#8D6C9F;fill-opacity:1;" d="M 21.40625 4.273438 C 21.292969 3.855469 20.863281 3.613281 20.445313 3.726563 C 20.027344 3.839844 19.785156 4.269531 19.898438 4.6875 L 20.3125 6.1875 C 20.378906 6.464844 20.589844 6.6875 20.863281 6.761719 C 21.136719 6.839844 21.433594 6.761719 21.632813 6.554688 C 21.832031 6.351563 21.902344 6.054688 21.820313 5.78125 Z "/>
<path style=" stroke:none;fill-rule:nonzero;fill:#8D6C9F;fill-opacity:1;" d="M 33.789063 5.46875 C 33.609375 5.363281 33.394531 5.335938 33.195313 5.390625 C 32.992188 5.445313 32.820313 5.578125 32.71875 5.757813 L 31.9375 7.109375 C 31.742188 7.480469 31.875 7.9375 32.238281 8.148438 C 32.601563 8.355469 33.066406 8.242188 33.289063 7.890625 L 34.070313 6.539063 C 34.175781 6.359375 34.203125 6.144531 34.152344 5.945313 C 34.097656 5.746094 33.96875 5.574219 33.789063 5.46875 Z "/>
<path style=" stroke:none;fill-rule:nonzero;fill:#8D6C9F;fill-opacity:1;" d="M 17.28125 5.765625 C 17.058594 5.414063 16.59375 5.300781 16.230469 5.507813 C 15.867188 5.71875 15.734375 6.175781 15.929688 6.546875 L 16.710938 7.898438 C 16.933594 8.25 17.398438 8.363281 17.761719 8.15625 C 18.125 7.945313 18.257813 7.488281 18.0625 7.117188 Z "/>
<path style=" stroke:none;fill-rule:nonzero;fill:#8D6C9F;fill-opacity:1;" d="M 29.546875 3.726563 C 29.128906 3.617188 28.703125 3.867188 28.59375 4.28125 L 28.1875 5.789063 C 28.078125 6.070313 28.136719 6.386719 28.34375 6.609375 C 28.546875 6.828125 28.859375 6.910156 29.148438 6.820313 C 29.433594 6.730469 29.644531 6.484375 29.6875 6.1875 L 30.101563 4.6875 C 30.15625 4.488281 30.128906 4.273438 30.023438 4.089844 C 29.921875 3.910156 29.75 3.78125 29.546875 3.726563 Z "/>
<path style=" stroke:none;fill-rule:nonzero;fill:#7d7d7d;fill-opacity:1;" d="M 44.53125 17.1875 L 43.75 17.1875 C 43.332031 7.570313 35.40625 -0.0078125 25.78125 0 L 24.21875 0 C 14.59375 -0.0078125 6.667969 7.570313 6.25 17.1875 L 5.46875 17.1875 C 3.3125 17.1875 1.5625 18.9375 1.5625 21.09375 L 1.5625 32.03125 C 1.5625 34.1875 3.3125 35.9375 5.46875 35.9375 L 7.953125 35.9375 C 8.339844 37.003906 9.433594 37.640625 10.554688 37.449219 C 11.671875 37.257813 12.492188 36.289063 12.5 35.15625 L 12.5 17.96875 C 12.492188 16.835938 11.671875 15.867188 10.554688 15.675781 C 9.433594 15.484375 8.339844 16.121094 7.953125 17.1875 L 7.851563 17.1875 C 8.007813 13.800781 9.21875 10.542969 11.3125 7.875 L 14.84375 11.351563 C 15.429688 11.929688 16.214844 12.257813 17.039063 12.257813 C 17.753906 12.257813 18.449219 12.007813 19 11.546875 C 22.472656 8.664063 27.503906 8.664063 30.976563 11.546875 C 32.21875 12.554688 34.023438 12.460938 35.15625 11.328125 L 38.664063 7.8125 C 40.777344 10.496094 41.996094 13.773438 42.148438 17.1875 L 42.046875 17.1875 C 41.660156 16.121094 40.566406 15.484375 39.445313 15.675781 C 38.328125 15.867188 37.507813 16.835938 37.5 17.96875 L 37.5 35.15625 C 37.507813 36.289063 38.328125 37.257813 39.445313 37.449219 C 40.566406 37.640625 41.660156 37.003906 42.046875 35.9375 L 42.96875 35.9375 L 42.96875 37.5 C 42.96875 41.382813 39.820313 44.53125 35.9375 44.53125 L 31.140625 44.53125 C 30.785156 43.15625 29.546875 42.191406 28.125 42.1875 L 26.5625 42.1875 C 24.835938 42.1875 23.4375 43.585938 23.4375 45.3125 C 23.4375 47.039063 24.835938 48.4375 26.5625 48.4375 L 28.125 48.4375 C 29.546875 48.433594 30.785156 47.46875 31.140625 46.09375 L 35.9375 46.09375 C 40.683594 46.09375 44.53125 42.246094 44.53125 37.5 L 44.53125 35.9375 C 46.6875 35.9375 48.4375 34.1875 48.4375 32.03125 L 48.4375 21.09375 C 48.4375 18.9375 46.6875 17.1875 44.53125 17.1875 Z M 3.125 32.03125 L 3.125 21.09375 C 3.125 19.800781 4.175781 18.75 5.46875 18.75 L 7.8125 18.75 L 7.8125 34.375 L 5.46875 34.375 C 4.175781 34.375 3.125 33.324219 3.125 32.03125 Z M 10.15625 17.1875 C 10.585938 17.1875 10.9375 17.539063 10.9375 17.96875 L 10.9375 35.15625 C 10.9375 35.585938 10.585938 35.9375 10.15625 35.9375 C 9.726563 35.9375 9.375 35.585938 9.375 35.15625 L 9.375 17.96875 C 9.375 17.539063 9.726563 17.1875 10.15625 17.1875 Z M 34.039063 10.210938 C 33.476563 10.765625 32.585938 10.8125 31.96875 10.320313 C 27.917969 6.960938 22.050781 6.960938 18 10.320313 C 17.382813 10.808594 16.5 10.761719 15.9375 10.210938 L 12.335938 6.695313 C 15.421875 3.421875 19.71875 1.566406 24.21875 1.5625 L 25.78125 1.5625 C 30.265625 1.5625 34.554688 3.40625 37.640625 6.664063 Z M 28.125 46.875 L 26.5625 46.875 C 25.699219 46.875 25 46.175781 25 45.3125 C 25 44.449219 25.699219 43.75 26.5625 43.75 L 28.125 43.75 C 28.988281 43.75 29.6875 44.449219 29.6875 45.3125 C 29.6875 46.175781 28.988281 46.875 28.125 46.875 Z M 39.84375 35.9375 C 39.414063 35.9375 39.0625 35.585938 39.0625 35.15625 L 39.0625 17.96875 C 39.0625 17.539063 39.414063 17.1875 39.84375 17.1875 C 40.273438 17.1875 40.625 17.539063 40.625 17.96875 L 40.625 35.15625 C 40.625 35.585938 40.273438 35.9375 39.84375 35.9375 Z M 44.53125 34.375 L 42.1875 34.375 L 42.1875 18.75 L 44.53125 18.75 C 45.824219 18.75 46.875 19.800781 46.875 21.09375 L 46.875 32.03125 C 46.875 33.324219 45.824219 34.375 44.53125 34.375 Z "/>
</g>
</svg>
